<svg width="330" height="44" viewBox="0 0 330 44" fill="none" xmlns="http://www.w3.org/2000/svg">
<path d="M23.1247 2.35632V1.87695H24.1077V1.24937H23.7036V1.64537H23.1247V0.610211H23.2208V0H22.7981V0.610211H22.8942V1.65232H22.3153V1.25053H21.9112V1.87695H22.8942V2.35632C22.0094 2.39338 21.1743 2.77581 20.5682 3.42155C19.9621 4.06728 19.6332 4.92488 19.6521 5.81032H26.3575C26.3756 4.92666 26.0478 4.0709 25.4438 3.42562C24.8398 2.78033 24.0076 2.39661 23.1247 2.35632Z" fill="#003670"/>
<path d="M18.7724 6.97027H27.2251C27.2598 6.97027 27.2931 6.95648 27.3176 6.93194C27.3421 6.9074 27.3559 6.87412 27.3559 6.83942V6.3369C27.3559 6.3022 27.3421 6.26892 27.3176 6.24438C27.2931 6.21984 27.2598 6.20605 27.2251 6.20605H18.7724C18.7377 6.20605 18.7045 6.21984 18.6799 6.24438C18.6554 6.26892 18.6416 6.3022 18.6416 6.3369V6.83942C18.6415 6.85665 18.6447 6.87373 18.6513 6.88968C18.6578 6.90562 18.6674 6.92011 18.6796 6.93229C18.6918 6.94447 18.7063 6.9541 18.7222 6.96062C18.7381 6.96714 18.7552 6.97042 18.7724 6.97027Z" fill="#003670"/>
<path d="M18.7725 13.371H27.2251C27.2598 13.371 27.2931 13.3572 27.3176 13.3327C27.3422 13.3082 27.3559 13.2749 27.3559 13.2402V12.7377C27.3561 12.7198 27.3526 12.702 27.3457 12.6856C27.3388 12.6691 27.3285 12.6542 27.3156 12.6418C27.3027 12.6295 27.2874 12.6199 27.2706 12.6136C27.2539 12.6074 27.236 12.6047 27.2182 12.6057H18.7725C18.7378 12.6057 18.7045 12.6194 18.6799 12.644C18.6554 12.6685 18.6416 12.7018 18.6416 12.7365V13.239C18.6413 13.2563 18.6445 13.2736 18.6509 13.2896C18.6574 13.3057 18.667 13.3203 18.6792 13.3326C18.6914 13.3449 18.7059 13.3547 18.7219 13.3613C18.738 13.3679 18.7551 13.3712 18.7725 13.371Z" fill="#003670"/>
<path d="M20.2955 7.34571C20.263 7.34555 20.2309 7.35183 20.2009 7.36417C20.1709 7.37651 20.1437 7.39467 20.1207 7.4176C20.0978 7.44053 20.0796 7.46778 20.0673 7.49777C20.055 7.52777 20.0487 7.55991 20.0488 7.59234V11.9923C20.0487 12.0248 20.055 12.0569 20.0673 12.0869C20.0796 12.1169 20.0978 12.1441 20.1207 12.1671C20.1437 12.19 20.1709 12.2082 20.2009 12.2205C20.2309 12.2328 20.263 12.2391 20.2955 12.239H21.319C21.3514 12.239 21.3834 12.2326 21.4132 12.2202C21.4431 12.2078 21.4702 12.1896 21.493 12.1667C21.5158 12.1437 21.5339 12.1165 21.5462 12.0866C21.5584 12.0567 21.5647 12.0247 21.5645 11.9923V7.59234C21.5647 7.56 21.5584 7.52796 21.5462 7.49804C21.5339 7.46813 21.5158 7.44093 21.493 7.41801C21.4702 7.3951 21.4431 7.37691 21.4132 7.3645C21.3834 7.35209 21.3514 7.34571 21.319 7.34571H20.2955Z" fill="#003670"/>
<path d="M22.481 7.34571C22.4486 7.34555 22.4164 7.35183 22.3864 7.36417C22.3565 7.37651 22.3292 7.39467 22.3063 7.4176C22.2833 7.44053 22.2652 7.46778 22.2528 7.49777C22.2405 7.52777 22.2342 7.55991 22.2344 7.59234V11.9923C22.2342 12.0248 22.2405 12.0569 22.2528 12.0869C22.2652 12.1169 22.2833 12.1441 22.3063 12.1671C22.3292 12.19 22.3565 12.2082 22.3864 12.2205C22.4164 12.2328 22.4486 12.2391 22.481 12.239H23.5C23.5324 12.2391 23.5645 12.2328 23.5945 12.2205C23.6245 12.2082 23.6518 12.19 23.6747 12.1671C23.6976 12.1441 23.7158 12.1169 23.7281 12.0869C23.7405 12.0569 23.7467 12.0248 23.7466 11.9923V7.59234C23.7467 7.55991 23.7405 7.52777 23.7281 7.49777C23.7158 7.46778 23.6976 7.44053 23.6747 7.4176C23.6518 7.39467 23.6245 7.37651 23.5945 7.36417C23.5645 7.35183 23.5324 7.34555 23.5 7.34571H22.481Z" fill="#003670"/>
<path d="M24.6353 7.34571C24.6029 7.34555 24.5707 7.35183 24.5407 7.36417C24.5107 7.37651 24.4835 7.39467 24.4606 7.4176C24.4376 7.44053 24.4195 7.46778 24.4071 7.49777C24.3948 7.52777 24.3885 7.55991 24.3887 7.59234V11.9923C24.3885 12.0248 24.3948 12.0569 24.4071 12.0869C24.4195 12.1169 24.4376 12.1441 24.4606 12.1671C24.4835 12.19 24.5107 12.2082 24.5407 12.2205C24.5707 12.2328 24.6029 12.2391 24.6353 12.239H25.6543C25.6867 12.2391 25.7188 12.2328 25.7488 12.2205C25.7788 12.2082 25.8061 12.19 25.829 12.1671C25.8519 12.1441 25.8701 12.1169 25.8824 12.0869C25.8948 12.0569 25.901 12.0248 25.9009 11.9923V7.59234C25.901 7.55991 25.8948 7.52777 25.8824 7.49777C25.8701 7.46778 25.8519 7.44053 25.829 7.4176C25.8061 7.39467 25.7788 7.37651 25.7488 7.36417C25.7188 7.35183 25.6867 7.34555 25.6543 7.34571H24.6353Z" fill="#003670"/>
<path d="M5.53328 29.4659C6.29145 25.9674 7.76721 22.6641 9.86728 19.7651C11.5805 17.4785 13.6957 15.523 16.1095 13.9941C12.2929 15.4129 8.92796 17.8316 6.36696 20.9971C3.21675 24.9733 1.46988 29.8797 1.39844 34.952H4.65907C4.78873 33.1012 5.08127 31.2654 5.53328 29.4659Z" fill="#003670"/>
<path d="M36.1858 19.763C38.286 22.662 39.7618 25.9652 40.5197 29.4639C40.9719 31.2637 41.2644 33.0999 41.394 34.9511H44.6534C44.5813 29.8787 42.8341 24.9724 39.6837 20.9962C37.1225 17.8328 33.758 15.4161 29.9424 13.999C32.3562 15.5254 34.4718 17.4786 36.1858 19.763Z" fill="#003670"/>
<path d="M19.0909 14.7949C17.2307 15.7059 15.5142 16.8849 13.9961 18.2941C7.66244 24.1993 6.92602 32.322 6.7998 34.9527H12.4457C12.2932 30.1026 13.2732 25.2837 15.308 20.8785C16.3243 18.7084 17.5941 16.6663 19.0909 14.7949Z" fill="#003670"/>
<path d="M39.127 34.9527C39.0008 32.322 38.2644 24.1982 31.9307 18.2941C30.4126 16.8849 28.6961 15.7059 26.8359 14.7949C28.3304 16.6664 29.5982 18.708 30.613 20.8773C32.6478 25.2826 33.6278 30.1015 33.4753 34.9516L39.127 34.9527Z" fill="#003670"/>
<path d="M21.953 34.9527V14.7949C19.9198 16.9896 18.257 19.5002 17.0297 22.2286C15.2476 26.224 14.4283 30.5818 14.6374 34.9516L21.953 34.9527Z" fill="#003670"/>
<path d="M24.0801 14.7949V34.9527H31.3957C31.6048 30.583 30.7855 26.2251 29.0034 22.2298C27.7755 19.5014 26.1128 16.9904 24.0801 14.7949Z" fill="#003670"/>
<path d="M41.4387 36.5765V35.8933C41.4384 35.8243 41.4109 35.7582 41.3621 35.7095C41.3133 35.6607 41.2472 35.6331 41.1782 35.6328H39.3256C39.2566 35.6331 39.1905 35.6607 39.1417 35.7095C39.0929 35.7582 39.0654 35.8243 39.0651 35.8933V36.5765H33.6322V35.8933C33.6319 35.8243 33.6044 35.7582 33.5556 35.7095C33.5068 35.6607 33.4407 35.6331 33.3717 35.6328H31.5191C31.4501 35.6331 31.384 35.6607 31.3352 35.7095C31.2864 35.7582 31.2588 35.8243 31.2585 35.8933V36.5765H24.1479V35.8933C24.1476 35.8243 24.12 35.7582 24.0713 35.7095C24.0225 35.6607 23.9564 35.6331 23.8874 35.6328H22.0347C21.9657 35.6331 21.8996 35.6607 21.8509 35.7095C21.8021 35.7582 21.7745 35.8243 21.7742 35.8933V36.5765H14.7412V35.8933C14.7409 35.8243 14.7133 35.7582 14.6645 35.7095C14.6157 35.6607 14.5496 35.6331 14.4806 35.6328H12.6211C12.552 35.6331 12.486 35.6607 12.4372 35.7095C12.3884 35.7582 12.3608 35.8243 12.3605 35.8933V36.5765H6.91842V35.8933C6.91812 35.8243 6.89057 35.7582 6.84178 35.7095C6.79299 35.6607 6.7269 35.6331 6.65789 35.6328H4.80526C4.73626 35.6331 4.67017 35.6607 4.62138 35.7095C4.57259 35.7582 4.54504 35.8243 4.54474 35.8933V36.5765H0V37.3928H45.9198V36.5765H41.4387Z" fill="#003670"/>
<path d="M6.6312 40.378C6.70705 40.378 6.77979 40.3478 6.83343 40.2942C6.88707 40.2405 6.9172 40.1678 6.9172 40.092V37.9209H4.54004V40.0966C4.54004 40.1724 4.57017 40.2452 4.62381 40.2988C4.67744 40.3525 4.75019 40.3826 4.82604 40.3826L6.6312 40.378Z" fill="#003670"/>
<path d="M14.4554 40.378C14.5313 40.378 14.604 40.3478 14.6576 40.2942C14.7113 40.2405 14.7414 40.1678 14.7414 40.092V37.9209H12.3643V40.0966C12.3643 40.1724 12.3944 40.2452 12.448 40.2988C12.5017 40.3525 12.5744 40.3826 12.6503 40.3826L14.4554 40.378Z" fill="#003670"/>
<path d="M23.8617 40.378C23.9375 40.378 24.0103 40.3478 24.0639 40.2942C24.1175 40.2405 24.1477 40.1678 24.1477 40.092V37.9209H21.7705V40.0966C21.7705 40.1724 21.8006 40.2452 21.8543 40.2988C21.9079 40.3525 21.9807 40.3826 22.0565 40.3826L23.8617 40.378Z" fill="#003670"/>
<path d="M33.3505 40.378C33.4263 40.378 33.4991 40.3478 33.5527 40.2942C33.6064 40.2405 33.6365 40.1678 33.6365 40.092V37.9209H31.2559V40.0966C31.2559 40.1724 31.286 40.2452 31.3396 40.2988C31.3933 40.3525 31.466 40.3826 31.5419 40.3826L33.3505 40.378Z" fill="#003670"/>
<path d="M41.1517 40.378C41.2276 40.378 41.3003 40.3478 41.3539 40.2942C41.4076 40.2405 41.4377 40.1678 41.4377 40.092V37.9209H39.0605V40.0966C39.0605 40.1724 39.0907 40.2452 39.1443 40.2988C39.198 40.3525 39.2707 40.3826 39.3465 40.3826L41.1517 40.378Z" fill="#003670"/>
<path d="M45.6072 41.0693H0.309158C0.227364 41.0693 0.148904 41.1018 0.0909586 41.1595C0.0330134 41.2172 0.000306343 41.2955 0 41.3773L0 42.5549C0 42.6369 0.0325719 42.7155 0.0905502 42.7735C0.148529 42.8315 0.227164 42.8641 0.309158 42.8641H45.606C45.688 42.8641 45.7666 42.8315 45.8246 42.7735C45.8826 42.7155 45.9152 42.6369 45.9152 42.5549V41.3773C45.9152 41.2956 45.8827 41.2173 45.8249 41.1595C45.7672 41.1018 45.6888 41.0693 45.6072 41.0693Z" fill="#003670"/>
<path d="M63.05 5.05C62.8567 4.64333 62.5767 4.33 62.21 4.11C61.8433 3.88333 61.4167 3.77 60.93 3.77C60.4433 3.77 60.0033 3.88333 59.61 4.11C59.2233 4.33 58.9167 4.65 58.69 5.07C58.47 5.48333 58.36 5.96333 58.36 6.51C58.36 7.05667 58.47 7.53667 58.69 7.95C58.9167 8.36333 59.2233 8.68333 59.61 8.91C60.0033 9.13 60.4433 9.24 60.93 9.24C61.61 9.24 62.17 9.03667 62.61 8.63C63.05 8.22333 63.3067 7.67333 63.38 6.98H60.6V6.24H64.35V6.94C64.2967 7.51333 64.1167 8.04 63.81 8.52C63.5033 8.99333 63.1 9.37 62.6 9.65C62.1 9.92333 61.5433 10.06 60.93 10.06C60.2833 10.06 59.6933 9.91 59.16 9.61C58.6267 9.30333 58.2033 8.88 57.89 8.34C57.5833 7.8 57.43 7.19 57.43 6.51C57.43 5.83 57.5833 5.22 57.89 4.68C58.2033 4.13333 58.6267 3.71 59.16 3.41C59.6933 3.10333 60.2833 2.95 60.93 2.95C61.67 2.95 62.3233 3.13333 62.89 3.5C63.4633 3.86667 63.88 4.38333 64.14 5.05H63.05ZM68.7132 10.07C68.0665 10.07 67.4765 9.92 66.9432 9.62C66.4099 9.31333 65.9865 8.89 65.6732 8.35C65.3665 7.80333 65.2132 7.19 65.2132 6.51C65.2132 5.83 65.3665 5.22 65.6732 4.68C65.9865 4.13333 66.4099 3.71 66.9432 3.41C67.4765 3.10333 68.0665 2.95 68.7132 2.95C69.3665 2.95 69.9599 3.10333 70.4932 3.41C71.0265 3.71 71.4465 4.13 71.7532 4.67C72.0599 5.21 72.2132 5.82333 72.2132 6.51C72.2132 7.19667 72.0599 7.81 71.7532 8.35C71.4465 8.89 71.0265 9.31333 70.4932 9.62C69.9599 9.92 69.3665 10.07 68.7132 10.07ZM68.7132 9.28C69.1999 9.28 69.6365 9.16667 70.0232 8.94C70.4165 8.71333 70.7232 8.39 70.9432 7.97C71.1699 7.55 71.2832 7.06333 71.2832 6.51C71.2832 5.95 71.1699 5.46333 70.9432 5.05C70.7232 4.63 70.4199 4.30667 70.0332 4.08C69.6465 3.85333 69.2065 3.74 68.7132 3.74C68.2199 3.74 67.7799 3.85333 67.3932 4.08C67.0065 4.30667 66.6999 4.63 66.4732 5.05C66.2532 5.46333 66.1432 5.95 66.1432 6.51C66.1432 7.06333 66.2532 7.55 66.4732 7.97C66.6999 8.39 67.0065 8.71333 67.3932 8.94C67.7865 9.16667 68.2265 9.28 68.7132 9.28ZM76.9045 6.41C77.1579 6.45 77.3879 6.55333 77.5945 6.72C77.8079 6.88667 77.9745 7.09333 78.0945 7.34C78.2212 7.58667 78.2845 7.85 78.2845 8.13C78.2845 8.48333 78.1945 8.80333 78.0145 9.09C77.8345 9.37 77.5712 9.59333 77.2245 9.76C76.8845 9.92 76.4812 10 76.0145 10H73.4145V3.03H75.9145C76.3879 3.03 76.7912 3.11 77.1245 3.27C77.4579 3.42333 77.7079 3.63333 77.8745 3.9C78.0412 4.16667 78.1245 4.46667 78.1245 4.8C78.1245 5.21333 78.0112 5.55667 77.7845 5.83C77.5645 6.09667 77.2712 6.29 76.9045 6.41ZM74.3245 6.04H75.8545C76.2812 6.04 76.6112 5.94 76.8445 5.74C77.0779 5.54 77.1945 5.26333 77.1945 4.91C77.1945 4.55667 77.0779 4.28 76.8445 4.08C76.6112 3.88 76.2745 3.78 75.8345 3.78H74.3245V6.04ZM75.9345 9.25C76.3879 9.25 76.7412 9.14333 76.9945 8.93C77.2479 8.71667 77.3745 8.42 77.3745 8.04C77.3745 7.65333 77.2412 7.35 76.9745 7.13C76.7079 6.90333 76.3512 6.79 75.9045 6.79H74.3245V9.25H75.9345ZM80.4573 3.03V10H79.5473V3.03H80.4573ZM82.9183 3.77V6.1H85.4583V6.85H82.9183V9.25H85.7583V10H82.0083V3.02H85.7583V3.77H82.9183ZM90.8052 10L89.1452 7.15H88.0452V10H87.1352V3.03H89.3852C89.9119 3.03 90.3552 3.12 90.7152 3.3C91.0819 3.48 91.3552 3.72333 91.5352 4.03C91.7152 4.33667 91.8052 4.68667 91.8052 5.08C91.8052 5.56 91.6652 5.98333 91.3852 6.35C91.1119 6.71667 90.6986 6.96 90.1452 7.08L91.8952 10H90.8052ZM88.0452 6.42H89.3852C89.8786 6.42 90.2486 6.3 90.4952 6.06C90.7419 5.81333 90.8652 5.48667 90.8652 5.08C90.8652 4.66667 90.7419 4.34667 90.4952 4.12C90.2552 3.89333 89.8852 3.78 89.3852 3.78H88.0452V6.42ZM98.6992 10H97.7892L94.1292 4.45V10H93.2192V3.02H94.1292L97.7892 8.56V3.02H98.6992V10ZM103.41 10.07C102.764 10.07 102.174 9.92 101.64 9.62C101.107 9.31333 100.684 8.89 100.37 8.35C100.064 7.80333 99.9105 7.19 99.9105 6.51C99.9105 5.83 100.064 5.22 100.37 4.68C100.684 4.13333 101.107 3.71 101.64 3.41C102.174 3.10333 102.764 2.95 103.41 2.95C104.064 2.95 104.657 3.10333 105.19 3.41C105.724 3.71 106.144 4.13 106.45 4.67C106.757 5.21 106.91 5.82333 106.91 6.51C106.91 7.19667 106.757 7.81 106.45 8.35C106.144 8.89 105.724 9.31333 105.19 9.62C104.657 9.92 104.064 10.07 103.41 10.07ZM103.41 9.28C103.897 9.28 104.334 9.16667 104.72 8.94C105.114 8.71333 105.42 8.39 105.64 7.97C105.867 7.55 105.98 7.06333 105.98 6.51C105.98 5.95 105.867 5.46333 105.64 5.05C105.42 4.63 105.117 4.30667 104.73 4.08C104.344 3.85333 103.904 3.74 103.41 3.74C102.917 3.74 102.477 3.85333 102.09 4.08C101.704 4.30667 101.397 4.63 101.17 5.05C100.95 5.46333 100.84 5.95 100.84 6.51C100.84 7.06333 100.95 7.55 101.17 7.97C101.397 8.39 101.704 8.71333 102.09 8.94C102.484 9.16667 102.924 9.28 103.41 9.28ZM112.948 3.03C113.708 3.03 114.364 3.17333 114.918 3.46C115.478 3.74 115.904 4.14333 116.198 4.67C116.498 5.19667 116.648 5.81667 116.648 6.53C116.648 7.24333 116.498 7.86333 116.198 8.39C115.904 8.91 115.478 9.31 114.918 9.59C114.364 9.86333 113.708 10 112.948 10H110.778V3.03H112.948ZM112.948 9.25C113.848 9.25 114.534 9.01333 115.008 8.54C115.481 8.06 115.718 7.39 115.718 6.53C115.718 5.66333 115.478 4.98667 114.998 4.5C114.524 4.01333 113.841 3.77 112.948 3.77H111.688V9.25H112.948ZM118.758 3.77V6.1H121.298V6.85H118.758V9.25H121.598V10H117.848V3.02H121.598V3.77H118.758ZM126.551 9.26H128.991V10H125.641V3.03H126.551V9.26ZM134.078 8.45H131.038L130.478 10H129.517L132.038 3.07H133.088L135.598 10H134.638L134.078 8.45ZM133.818 7.71L132.558 4.19L131.298 7.71H133.818ZM61.44 22L59.78 19.15H58.68V22H57.77V15.03H60.02C60.5467 15.03 60.99 15.12 61.35 15.3C61.7167 15.48 61.99 15.7233 62.17 16.03C62.35 16.3367 62.44 16.6867 62.44 17.08C62.44 17.56 62.3 17.9833 62.02 18.35C61.7467 18.7167 61.3333 18.96 60.78 19.08L62.53 22H61.44ZM58.68 18.42H60.02C60.5133 18.42 60.8833 18.3 61.13 18.06C61.3767 17.8133 61.5 17.4867 61.5 17.08C61.5 16.6667 61.3767 16.3467 61.13 16.12C60.89 15.8933 60.52 15.78 60.02 15.78H58.68V18.42ZM64.764 15.77V18.1H67.304V18.85H64.764V21.25H67.604V22H63.854V15.02H67.604V15.77H64.764ZM73.6409 17.07C73.6409 17.65 73.4409 18.1333 73.0409 18.52C72.6476 18.9 72.0443 19.09 71.2309 19.09H69.8909V22H68.9809V15.03H71.2309C72.0176 15.03 72.6143 15.22 73.0209 15.6C73.4343 15.98 73.6409 16.47 73.6409 17.07ZM71.2309 18.34C71.7376 18.34 72.1109 18.23 72.3509 18.01C72.5909 17.79 72.7109 17.4767 72.7109 17.07C72.7109 16.21 72.2176 15.78 71.2309 15.78H69.8909V18.34H71.2309ZM75.662 15.03V19.44C75.662 20.06 75.812 20.52 76.112 20.82C76.4186 21.12 76.842 21.27 77.382 21.27C77.9153 21.27 78.332 21.12 78.632 20.82C78.9386 20.52 79.092 20.06 79.092 19.44V15.03H80.002V19.43C80.002 20.01 79.8853 20.5 79.652 20.9C79.4186 21.2933 79.102 21.5867 78.702 21.78C78.3086 21.9733 77.8653 22.07 77.372 22.07C76.8786 22.07 76.432 21.9733 76.032 21.78C75.6386 21.5867 75.3253 21.2933 75.092 20.9C74.8653 20.5 74.752 20.01 74.752 19.43V15.03H75.662ZM78.352 13.52L76.222 14.66V13.98L78.352 12.73V13.52ZM85.01 18.41C85.2633 18.45 85.4933 18.5533 85.7 18.72C85.9133 18.8867 86.08 19.0933 86.2 19.34C86.3267 19.5867 86.39 19.85 86.39 20.13C86.39 20.4833 86.3 20.8033 86.12 21.09C85.94 21.37 85.6767 21.5933 85.33 21.76C84.99 21.92 84.5867 22 84.12 22H81.52V15.03H84.02C84.4933 15.03 84.8967 15.11 85.23 15.27C85.5633 15.4233 85.8133 15.6333 85.98 15.9C86.1467 16.1667 86.23 16.4667 86.23 16.8C86.23 17.2133 86.1167 17.5567 85.89 17.83C85.67 18.0967 85.3767 18.29 85.01 18.41ZM82.43 18.04H83.96C84.3867 18.04 84.7167 17.94 84.95 17.74C85.1833 17.54 85.3 17.2633 85.3 16.91C85.3 16.5567 85.1833 16.28 84.95 16.08C84.7167 15.88 84.38 15.78 83.94 15.78H82.43V18.04ZM84.04 21.25C84.4933 21.25 84.8467 21.1433 85.1 20.93C85.3533 20.7167 85.48 20.42 85.48 20.04C85.48 19.6533 85.3467 19.35 85.08 19.13C84.8133 18.9033 84.4567 18.79 84.01 18.79H82.43V21.25H84.04ZM88.5628 21.26H91.0028V22H87.6528V15.03H88.5628V21.26ZM92.8792 15.03V22H91.9692V15.03H92.8792ZM94.0902 18.51C94.0902 17.83 94.2435 17.22 94.5502 16.68C94.8568 16.1333 95.2735 15.7067 95.8002 15.4C96.3335 15.0933 96.9235 14.94 97.5702 14.94C98.3302 14.94 98.9935 15.1233 99.5602 15.49C100.127 15.8567 100.54 16.3767 100.8 17.05H99.7102C99.5168 16.63 99.2368 16.3067 98.8702 16.08C98.5102 15.8533 98.0768 15.74 97.5702 15.74C97.0835 15.74 96.6468 15.8533 96.2602 16.08C95.8735 16.3067 95.5702 16.63 95.3502 17.05C95.1302 17.4633 95.0202 17.95 95.0202 18.51C95.0202 19.0633 95.1302 19.55 95.3502 19.97C95.5702 20.3833 95.8735 20.7033 96.2602 20.93C96.6468 21.1567 97.0835 21.27 97.5702 21.27C98.0768 21.27 98.5102 21.16 98.8702 20.94C99.2368 20.7133 99.5168 20.39 99.7102 19.97H100.8C100.54 20.6367 100.127 21.1533 99.5602 21.52C98.9935 21.88 98.3302 22.06 97.5702 22.06C96.9235 22.06 96.3335 21.91 95.8002 21.61C95.2735 21.3033 94.8568 20.88 94.5502 20.34C94.2435 19.8 94.0902 19.19 94.0902 18.51ZM106.275 20.45H103.235L102.675 22H101.715L104.235 15.07H105.285L107.795 22H106.835L106.275 20.45ZM106.015 19.71L104.755 16.19L103.495 19.71H106.015ZM113.729 15.03C114.489 15.03 115.146 15.1733 115.699 15.46C116.259 15.74 116.686 16.1433 116.979 16.67C117.279 17.1967 117.429 17.8167 117.429 18.53C117.429 19.2433 117.279 19.8633 116.979 20.39C116.686 20.91 116.259 21.31 115.699 21.59C115.146 21.8633 114.489 22 113.729 22H111.559V15.03H113.729ZM113.729 21.25C114.629 21.25 115.316 21.0133 115.789 20.54C116.262 20.06 116.499 19.39 116.499 18.53C116.499 17.6633 116.259 16.9867 115.779 16.5C115.306 16.0133 114.622 15.77 113.729 15.77H112.469V21.25H113.729ZM121.789 22.07C121.143 22.07 120.553 21.92 120.019 21.62C119.486 21.3133 119.063 20.89 118.749 20.35C118.443 19.8033 118.289 19.19 118.289 18.51C118.289 17.83 118.443 17.22 118.749 16.68C119.063 16.1333 119.486 15.71 120.019 15.41C120.553 15.1033 121.143 14.95 121.789 14.95C122.443 14.95 123.036 15.1033 123.569 15.41C124.103 15.71 124.523 16.13 124.829 16.67C125.136 17.21 125.289 17.8233 125.289 18.51C125.289 19.1967 125.136 19.81 124.829 20.35C124.523 20.89 124.103 21.3133 123.569 21.62C123.036 21.92 122.443 22.07 121.789 22.07ZM121.789 21.28C122.276 21.28 122.713 21.1667 123.099 20.94C123.493 20.7133 123.799 20.39 124.019 19.97C124.246 19.55 124.359 19.0633 124.359 18.51C124.359 17.95 124.246 17.4633 124.019 17.05C123.799 16.63 123.496 16.3067 123.109 16.08C122.723 15.8533 122.283 15.74 121.789 15.74C121.296 15.74 120.856 15.8533 120.469 16.08C120.083 16.3067 119.776 16.63 119.549 17.05C119.329 17.4633 119.219 17.95 119.219 18.51C119.219 19.0633 119.329 19.55 119.549 19.97C119.776 20.39 120.083 20.7133 120.469 20.94C120.863 21.1667 121.303 21.28 121.789 21.28ZM133.561 15.08V22H132.651V16.84L130.351 22H129.711L127.401 16.83V22H126.491V15.08H127.471L130.031 20.8L132.591 15.08H133.561ZM136.014 15.03V22H135.104V15.03H136.014ZM143.045 22H142.135L138.475 16.45V22H137.565V15.02H138.475L142.135 20.56V15.02H143.045V22ZM145.506 15.03V22H144.596V15.03H145.506ZM146.717 18.51C146.717 17.83 146.87 17.22 147.177 16.68C147.484 16.1333 147.9 15.7067 148.427 15.4C148.96 15.0933 149.55 14.94 150.197 14.94C150.957 14.94 151.62 15.1233 152.187 15.49C152.754 15.8567 153.167 16.3767 153.427 17.05H152.337C152.144 16.63 151.864 16.3067 151.497 16.08C151.137 15.8533 150.704 15.74 150.197 15.74C149.71 15.74 149.274 15.8533 148.887 16.08C148.5 16.3067 148.197 16.63 147.977 17.05C147.757 17.4633 147.647 17.95 147.647 18.51C147.647 19.0633 147.757 19.55 147.977 19.97C148.197 20.3833 148.5 20.7033 148.887 20.93C149.274 21.1567 149.71 21.27 150.197 21.27C150.704 21.27 151.137 21.16 151.497 20.94C151.864 20.7133 152.144 20.39 152.337 19.97H153.427C153.167 20.6367 152.754 21.1533 152.187 21.52C151.62 21.88 150.957 22.06 150.197 22.06C149.55 22.06 148.96 21.91 148.427 21.61C147.9 21.3033 147.484 20.88 147.177 20.34C146.87 19.8 146.717 19.19 146.717 18.51ZM158.902 20.45H155.862L155.302 22H154.342L156.862 15.07H157.912L160.422 22H159.462L158.902 20.45ZM158.642 19.71L157.382 16.19L156.122 19.71H158.642ZM167 22H166.09L162.43 16.45V22H161.52V15.02H162.43L166.09 20.56V15.02H167V22ZM172.671 20.45H169.631L169.071 22H168.111L170.631 15.07H171.681L174.191 22H173.231L172.671 20.45ZM172.411 19.71L171.151 16.19L169.891 19.71H172.411Z" fill="#003670"/>
<path d="M57.6898 40.4409C58.5998 40.3509 59.6898 40.3809 60.6098 40.3809C61.4498 40.3809 61.9998 40.4109 62.5598 40.4409C63.1898 40.4409 63.6198 39.4309 63.6198 38.9209C63.6198 38.7509 63.3498 38.7009 63.2798 38.8109C63.0398 39.1909 62.4398 39.8809 60.9298 39.8809C60.0998 39.8809 59.8598 39.6709 59.8598 39.1009V37.4209C59.8598 37.1609 59.9898 37.1109 60.1898 37.1109H60.3398C60.9198 37.1109 61.4198 37.2409 61.6498 37.5609C61.7598 37.7109 61.9098 37.7309 61.9898 37.5509L62.5598 36.2909C62.6498 36.0909 62.4298 36.0709 62.3298 36.1609C61.9198 36.5309 61.2098 36.6109 60.3998 36.6109H60.1898C59.9898 36.6109 59.8598 36.5609 59.8598 36.3009V34.6709C59.8598 34.1509 60.0898 33.9709 60.7898 33.9709C62.0398 33.9709 62.3398 34.2509 62.4898 34.7409C62.5298 34.8809 62.7698 34.8809 62.8098 34.7409L63.0498 33.7909C63.1098 33.5609 63.0998 33.4009 62.8598 33.4009C62.0398 33.4209 61.3798 33.4609 60.4698 33.4609C59.8598 33.4609 58.5998 33.4809 57.8698 33.4009C57.7898 33.3909 57.7398 33.7209 57.8198 33.7409C58.2498 33.8509 58.6598 34.0209 58.6598 34.6609V39.1009C58.6598 39.8409 58.2098 39.9309 57.6298 40.0809C57.5498 40.1009 57.5898 40.4509 57.6898 40.4409ZM68.4219 40.5809C68.7319 40.5809 70.0719 40.0509 70.5019 39.4209C70.5619 39.3309 70.3519 39.1009 70.2719 39.1509C69.7519 39.4809 68.8419 39.6209 68.6619 39.6209C67.2919 39.6209 65.5819 38.6809 65.5819 36.4309C65.5819 34.9909 66.2819 34.0609 67.7119 34.0609C69.4919 34.0609 69.8819 35.4309 70.2419 34.3609L70.3719 33.9709C70.4919 33.6209 69.4919 33.2609 68.3319 33.2609C65.5319 33.2609 64.4719 35.3209 64.4719 37.0509C64.4719 39.6009 66.7419 40.5809 68.4219 40.5809ZM75.1717 40.5809C77.3717 40.5809 78.8017 38.9009 78.8017 36.8709C78.8017 34.7909 77.2817 33.2609 75.1917 33.2609C73.0017 33.2609 71.5617 34.9409 71.5617 36.9609C71.5617 39.0409 73.0917 40.5809 75.1717 40.5809ZM72.7617 36.4009C72.7617 34.5209 73.9217 33.9409 74.8017 33.9409C76.2417 33.9409 77.6117 35.4109 77.6117 37.4309C77.6117 39.3209 76.4417 39.9009 75.5617 39.9009C74.1317 39.9009 72.7617 38.4409 72.7617 36.4009ZM86.3816 40.5209C86.5416 40.5209 86.7016 40.4809 86.6616 40.3309C86.5616 39.9609 86.5416 39.2309 86.5416 38.5709V34.6809C86.5416 33.9709 86.9216 33.8909 87.3616 33.7609C87.4416 33.7409 87.3916 33.4209 87.3116 33.4209H84.9416C84.8416 33.4209 84.8016 33.7409 84.8816 33.7609C85.4016 33.8909 85.8516 33.9709 85.8516 34.6809V38.4409L81.1916 33.5109C81.1216 33.4309 81.0516 33.4209 80.9516 33.4209H80.2116C80.0716 33.4209 80.0116 33.5409 80.0116 33.6109C80.0116 33.6709 80.1016 33.7609 80.1916 33.8809C80.4516 34.2309 80.5616 34.5609 80.5616 35.2709V39.1509C80.5616 39.8609 80.1616 39.9409 79.7416 40.0809C79.6516 40.1109 79.7116 40.4209 79.7916 40.4209H82.1616C82.2616 40.4209 82.3016 40.1009 82.2216 40.0809C81.6516 39.9409 81.2516 39.8309 81.2516 39.1509V35.3509L86.0116 40.3309C86.1216 40.4509 86.2116 40.5209 86.3816 40.5209ZM91.9588 40.5809C94.1588 40.5809 95.5888 38.9009 95.5888 36.8709C95.5888 34.7909 94.0688 33.2609 91.9788 33.2609C89.7888 33.2609 88.3488 34.9409 88.3488 36.9609C88.3488 39.0409 89.8788 40.5809 91.9588 40.5809ZM89.5488 36.4009C89.5488 34.5209 90.7088 33.9409 91.5888 33.9409C93.0288 33.9409 94.3988 35.4109 94.3988 37.4309C94.3988 39.3209 93.2288 39.9009 92.3488 39.9009C90.9188 39.9009 89.5488 38.4409 89.5488 36.4009ZM96.5898 40.4209H98.6598C98.7298 40.4209 98.7898 40.0909 98.7098 40.0809C98.3898 40.0409 97.9798 39.8809 98.0098 39.1809L98.1598 35.7709L100.47 40.1509C100.53 40.2709 100.63 40.3309 100.78 40.3309C100.94 40.3309 101.15 40.2709 101.17 40.1509C101.2 39.9909 101.36 39.5509 101.57 39.1209L103.19 35.8209L103.38 39.1809C103.41 39.8109 103.1 40.0109 102.68 40.0809C102.62 40.0909 102.67 40.4209 102.74 40.4209H105.35C105.42 40.4209 105.48 40.0909 105.4 40.0809C104.98 40.0309 104.62 39.8809 104.58 39.1809L104.26 33.4409C104.25 33.2709 103.85 33.2609 103.76 33.4409L101.07 38.8609L98.1698 33.4409C98.0698 33.2609 97.6898 33.2709 97.6798 33.4409L97.3598 39.1809C97.3198 39.8809 96.9598 40.0309 96.5298 40.0809C96.4498 40.0909 96.5098 40.4209 96.5898 40.4209ZM106.336 40.4209H109.076C109.156 40.4209 109.216 40.0909 109.136 40.0809C108.706 40.0209 108.306 39.8809 108.306 39.1809V34.6609C108.306 33.9609 108.706 33.8209 109.136 33.7609C109.216 33.7509 109.156 33.4209 109.076 33.4209H106.336C106.256 33.4209 106.196 33.7509 106.276 33.7609C106.786 33.8309 107.106 34.0309 107.106 34.6609V39.1809C107.106 39.8109 106.786 40.0109 106.276 40.0809C106.196 40.0909 106.256 40.4209 106.336 40.4209ZM106.856 32.2509C106.756 32.3909 107.106 32.7109 107.236 32.6109L108.546 31.6209C108.786 31.4409 107.946 30.6709 107.766 30.9309L106.856 32.2509ZM109.936 40.4209H112.096C112.226 40.4209 112.256 40.1009 112.126 40.0809C111.646 40.0109 111.266 39.8809 111.616 39.0209L111.716 38.7709C111.816 38.5309 111.986 38.5109 112.286 38.5109H114.326C114.626 38.5109 114.796 38.5309 114.896 38.7709L115.006 39.0209C115.376 39.8809 114.976 40.0109 114.606 40.0809C114.496 40.1009 114.506 40.4209 114.636 40.4209H117.276C117.396 40.4209 117.436 40.1009 117.296 40.0809C116.896 40.0209 116.656 39.8609 116.296 39.0109L113.856 33.3209C113.826 33.2509 113.126 33.4109 113.126 33.4709C113.126 33.8509 113.006 34.2609 112.616 35.1409L110.926 39.0209C110.556 39.8709 110.316 40.0109 109.906 40.0809C109.786 40.1009 109.816 40.4209 109.936 40.4209ZM112.136 37.7909L113.316 34.9909L114.486 37.7909C114.546 37.9309 114.396 37.9509 114.256 37.9509H112.366C112.226 37.9509 112.076 37.9309 112.136 37.7909ZM118.283 42.0209C119.123 41.4609 119.803 40.4909 119.803 39.7809C119.803 39.5009 119.273 39.0009 119.053 39.0009C118.833 39.0009 118.273 39.4909 118.273 39.7709C118.273 40.0309 118.863 40.1709 118.863 40.4209C118.863 40.8409 118.393 41.4909 118.003 41.8109C117.903 41.8909 118.183 42.0809 118.283 42.0209ZM122.811 40.4209H125.841C125.921 40.4209 125.971 40.0909 125.901 40.0809C125.261 40.0009 124.781 39.8809 124.781 39.1809V37.7409C126.991 38.0709 128.661 37.3209 128.661 35.5409C128.661 33.9709 127.381 33.4009 125.831 33.4009C125.321 33.4009 124.701 33.4609 123.961 33.4609C123.641 33.4609 123.201 33.4509 122.811 33.4009C122.721 33.3909 122.671 33.7209 122.751 33.7409C123.231 33.8709 123.581 34.0609 123.581 34.7209V39.1809C123.581 39.8109 123.261 40.0109 122.751 40.0809C122.671 40.0909 122.731 40.4209 122.811 40.4209ZM124.781 37.2509V34.7209C124.781 34.1409 124.951 33.9209 125.581 33.9209C126.611 33.9209 127.371 34.5809 127.371 35.7709C127.371 37.0809 126.481 37.4909 124.781 37.2509ZM129.506 40.4409C130.416 40.3509 131.506 40.3809 132.426 40.3809C133.266 40.3809 133.816 40.4109 134.376 40.4409C135.006 40.4409 135.436 39.4309 135.436 38.9209C135.436 38.7509 135.166 38.7009 135.096 38.8109C134.856 39.1909 134.256 39.8809 132.746 39.8809C131.916 39.8809 131.676 39.6709 131.676 39.1009V34.6609C131.676 33.9609 132.076 33.8109 132.496 33.7609C132.566 33.7509 132.516 33.4209 132.446 33.4209H129.686C129.616 33.4209 129.556 33.7509 129.636 33.7609C130.066 33.8209 130.476 33.9609 130.476 34.6609V39.1009C130.476 39.8409 130.026 39.9309 129.446 40.0809C129.366 40.1009 129.406 40.4509 129.506 40.4409ZM136.001 40.4209H138.161C138.291 40.4209 138.321 40.1009 138.191 40.0809C137.711 40.0109 137.331 39.8809 137.681 39.0209L137.781 38.7709C137.881 38.5309 138.051 38.5109 138.351 38.5109H140.391C140.691 38.5109 140.861 38.5309 140.961 38.7709L141.071 39.0209C141.441 39.8809 141.041 40.0109 140.671 40.0809C140.561 40.1009 140.571 40.4209 140.701 40.4209H143.341C143.461 40.4209 143.501 40.1009 143.361 40.0809C142.961 40.0209 142.721 39.8609 142.361 39.0109L139.921 33.3209C139.891 33.2509 139.191 33.4109 139.191 33.4709C139.191 33.8509 139.071 34.2609 138.681 35.1409L136.991 39.0209C136.621 39.8709 136.381 40.0109 135.971 40.0809C135.851 40.1009 135.881 40.4209 136.001 40.4209ZM138.201 37.7909L139.381 34.9909L140.551 37.7909C140.611 37.9309 140.461 37.9509 140.321 37.9509H138.431C138.291 37.9509 138.141 37.9309 138.201 37.7909ZM150.727 40.5209C150.887 40.5209 151.047 40.4809 151.007 40.3309C150.907 39.9609 150.887 39.2309 150.887 38.5709V34.6809C150.887 33.9709 151.267 33.8909 151.707 33.7609C151.787 33.7409 151.737 33.4209 151.657 33.4209H149.287C149.187 33.4209 149.147 33.7409 149.227 33.7609C149.747 33.8909 150.197 33.9709 150.197 34.6809V38.4409L145.537 33.5109C145.467 33.4309 145.397 33.4209 145.297 33.4209H144.557C144.417 33.4209 144.357 33.5409 144.357 33.6109C144.357 33.6709 144.447 33.7609 144.537 33.8809C144.797 34.2309 144.907 34.5609 144.907 35.2709V39.1509C144.907 39.8609 144.507 39.9409 144.087 40.0809C143.997 40.1109 144.057 40.4209 144.137 40.4209H146.507C146.607 40.4209 146.647 40.1009 146.567 40.0809C145.997 39.9409 145.597 39.8309 145.597 39.1509V35.3509L150.357 40.3309C150.467 40.4509 150.557 40.5209 150.727 40.5209ZM152.645 40.4209H155.385C155.465 40.4209 155.525 40.0909 155.445 40.0809C155.015 40.0209 154.615 39.8809 154.615 39.1809V34.6609C154.615 33.9609 155.015 33.8209 155.445 33.7609C155.525 33.7509 155.465 33.4209 155.385 33.4209H152.645C152.565 33.4209 152.505 33.7509 152.585 33.7609C153.095 33.8309 153.415 34.0309 153.415 34.6609V39.1809C153.415 39.8109 153.095 40.0109 152.585 40.0809C152.505 40.0909 152.565 40.4209 152.645 40.4209ZM156.235 40.4409C156.705 40.3909 157.225 40.3809 157.805 40.3809C158.385 40.3809 158.905 40.3909 159.625 40.4409C159.725 40.4509 159.775 40.1009 159.685 40.0809C158.865 39.9009 158.405 39.8409 158.405 39.1009V37.5209C158.405 37.2609 158.535 37.2109 158.735 37.2109H158.895C159.465 37.2109 159.965 37.3409 160.195 37.6609C160.305 37.8109 160.455 37.8309 160.535 37.6509L161.105 36.3909C161.195 36.1909 160.975 36.1709 160.875 36.2609C160.465 36.6309 159.765 36.7109 158.955 36.7109H158.735C158.535 36.7109 158.405 36.6609 158.405 36.4009V34.6709C158.405 34.1509 158.635 33.9709 159.335 33.9709C160.585 33.9709 160.885 34.2509 161.035 34.7409C161.075 34.8809 161.325 34.8809 161.355 34.7409L161.595 33.7909C161.645 33.5609 161.645 33.4009 161.405 33.4009C160.585 33.4209 159.925 33.4609 159.015 33.4609C158.405 33.4609 157.145 33.4809 156.415 33.4009C156.335 33.3909 156.285 33.7209 156.365 33.7409C156.795 33.8509 157.205 34.0209 157.205 34.6609V39.1009C157.205 39.8409 156.755 39.9309 156.175 40.0809C156.095 40.1009 156.135 40.4509 156.235 40.4409ZM162.576 40.4209H165.316C165.396 40.4209 165.456 40.0909 165.376 40.0809C164.946 40.0209 164.546 39.8809 164.546 39.1809V34.6609C164.546 33.9609 164.946 33.8209 165.376 33.7609C165.456 33.7509 165.396 33.4209 165.316 33.4209H162.576C162.496 33.4209 162.436 33.7509 162.516 33.7609C163.026 33.8309 163.346 34.0309 163.346 34.6609V39.1809C163.346 39.8109 163.026 40.0109 162.516 40.0809C162.436 40.0909 162.496 40.4209 162.576 40.4209ZM170.316 40.5809C170.626 40.5809 171.966 40.0509 172.396 39.4209C172.456 39.3309 172.246 39.1009 172.166 39.1509C171.646 39.4809 170.736 39.6209 170.556 39.6209C169.186 39.6209 167.476 38.6809 167.476 36.4309C167.476 34.9909 168.176 34.0609 169.606 34.0609C171.386 34.0609 171.776 35.4309 172.136 34.3609L172.266 33.9709C172.386 33.6209 171.386 33.2609 170.226 33.2609C167.426 33.2609 166.366 35.3209 166.366 37.0509C166.366 39.6009 168.636 40.5809 170.316 40.5809ZM173.071 40.4209H175.231C175.361 40.4209 175.391 40.1009 175.261 40.0809C174.781 40.0109 174.401 39.8809 174.751 39.0209L174.851 38.7709C174.951 38.5309 175.121 38.5109 175.421 38.5109H177.461C177.761 38.5109 177.931 38.5309 178.031 38.7709L178.141 39.0209C178.511 39.8809 178.111 40.0109 177.741 40.0809C177.631 40.1009 177.641 40.4209 177.771 40.4209H180.411C180.531 40.4209 180.571 40.1009 180.431 40.0809C180.031 40.0209 179.791 39.8609 179.431 39.0109L176.991 33.3209C176.961 33.2509 176.261 33.4109 176.261 33.4709C176.261 33.8509 176.141 34.2609 175.751 35.1409L174.061 39.0209C173.691 39.8709 173.451 40.0109 173.041 40.0809C172.921 40.1009 172.951 40.4209 173.071 40.4209ZM175.271 37.7909L176.451 34.9909L177.621 37.7909C177.681 37.9309 177.531 37.9509 177.391 37.9509H175.501C175.361 37.9509 175.211 37.9309 175.271 37.7909ZM184.77 40.5809C185.08 40.5809 186.42 40.0509 186.85 39.4209C186.91 39.3309 186.7 39.1009 186.62 39.1509C186.1 39.4809 185.19 39.6209 185.01 39.6209C183.64 39.6209 181.93 38.6809 181.93 36.4309C181.93 34.9909 182.63 34.0609 184.06 34.0609C185.84 34.0609 186.23 35.4309 186.59 34.3609L186.72 33.9709C186.84 33.6209 185.84 33.2609 184.68 33.2609C181.88 33.2609 180.82 35.3209 180.82 37.0509C180.82 39.6009 183.09 40.5809 184.77 40.5809ZM187.859 40.4209H190.599C190.679 40.4209 190.739 40.0909 190.659 40.0809C190.229 40.0209 189.829 39.8809 189.829 39.1809V34.6609C189.829 33.9609 190.229 33.8209 190.659 33.7609C190.739 33.7509 190.679 33.4209 190.599 33.4209H187.859C187.779 33.4209 187.719 33.7509 187.799 33.7609C188.309 33.8309 188.629 34.0309 188.629 34.6609V39.1809C188.629 39.8109 188.309 40.0109 187.799 40.0809C187.719 40.0909 187.779 40.4209 187.859 40.4209ZM195.26 40.5809C197.46 40.5809 198.89 38.9009 198.89 36.8709C198.89 34.7909 197.37 33.2609 195.28 33.2609C193.09 33.2609 191.65 34.9409 191.65 36.9609C191.65 39.0409 193.18 40.5809 195.26 40.5809ZM192.85 36.4009C192.85 34.5209 194.01 33.9409 194.89 33.9409C196.33 33.9409 197.7 35.4109 197.7 37.4309C197.7 39.3209 196.53 39.9009 195.65 39.9009C194.22 39.9009 192.85 38.4409 192.85 36.4009ZM194.42 32.2509C194.32 32.3909 194.67 32.7109 194.8 32.6109L196.11 31.6209C196.35 31.4409 195.51 30.6709 195.33 30.9309L194.42 32.2509ZM206.469 40.5209C206.629 40.5209 206.789 40.4809 206.749 40.3309C206.649 39.9609 206.629 39.2309 206.629 38.5709V34.6809C206.629 33.9709 207.009 33.8909 207.449 33.7609C207.529 33.7409 207.479 33.4209 207.399 33.4209H205.029C204.929 33.4209 204.889 33.7409 204.969 33.7609C205.489 33.8909 205.939 33.9709 205.939 34.6809V38.4409L201.279 33.5109C201.209 33.4309 201.139 33.4209 201.039 33.4209H200.299C200.159 33.4209 200.099 33.5409 200.099 33.6109C200.099 33.6709 200.189 33.7609 200.279 33.8809C200.539 34.2309 200.649 34.5609 200.649 35.2709V39.1509C200.649 39.8609 200.249 39.9409 199.829 40.0809C199.739 40.1109 199.799 40.4209 199.879 40.4209H202.249C202.349 40.4209 202.389 40.1009 202.309 40.0809C201.739 39.9409 201.339 39.8309 201.339 39.1509V35.3509L206.099 40.3309C206.209 40.4509 206.299 40.5209 206.469 40.5209ZM211.39 34.8309L213.07 37.3609V39.1809C213.07 39.8609 212.7 39.9909 212.04 40.0809C211.97 40.0909 212.02 40.4209 212.1 40.4209H215.23C215.31 40.4209 215.36 40.0909 215.29 40.0809C214.67 40.0009 214.27 39.8809 214.27 39.1809V37.3209L215.87 34.8209C216.33 34.1009 216.67 33.8209 217.06 33.7609C217.18 33.7409 217.15 33.4209 217.03 33.4209H214.89C214.77 33.4209 214.73 33.7409 214.87 33.7609C215.4 33.8409 215.65 34.1709 215.23 34.8209L214.01 36.7109L212.74 34.8209C212.31 34.1709 212.48 33.8309 212.92 33.7609C213.04 33.7409 213.02 33.4209 212.89 33.4209H210.25C210.12 33.4209 210.09 33.7409 210.22 33.7609C210.65 33.8309 210.93 34.1409 211.39 34.8309ZM219.741 40.4409C220.201 40.3909 220.691 40.3809 221.311 40.3809C222.051 40.3809 222.671 40.4409 223.151 40.4409C225.581 40.4409 226.891 38.6909 226.891 36.7709C226.891 34.8409 225.581 33.4009 223.161 33.4009C222.651 33.4009 221.951 33.4609 221.171 33.4609C220.751 33.4609 220.331 33.4509 219.921 33.4009C219.841 33.3909 219.791 33.7209 219.871 33.7409C220.301 33.8509 220.711 34.0209 220.711 34.6609V39.1009C220.711 39.8409 220.261 39.9309 219.681 40.0809C219.601 40.1009 219.641 40.4509 219.741 40.4409ZM221.911 39.1009V34.6609C221.911 34.1509 222.141 33.9309 222.851 33.9309C224.651 33.9309 225.691 35.4309 225.691 37.3409C225.691 39.0309 224.881 39.9109 223.251 39.9109C222.281 39.9109 221.911 39.6409 221.911 39.1009ZM227.436 40.4409C228.346 40.3509 229.436 40.3809 230.356 40.3809C231.196 40.3809 231.746 40.4109 232.306 40.4409C232.936 40.4409 233.366 39.4309 233.366 38.9209C233.366 38.7509 233.096 38.7009 233.026 38.8109C232.786 39.1909 232.186 39.8809 230.676 39.8809C229.846 39.8809 229.606 39.6709 229.606 39.1009V37.4209C229.606 37.1609 229.736 37.1109 229.936 37.1109H230.086C230.666 37.1109 231.166 37.2409 231.396 37.5609C231.506 37.7109 231.656 37.7309 231.736 37.5509L232.306 36.2909C232.396 36.0909 232.176 36.0709 232.076 36.1609C231.666 36.5309 230.956 36.6109 230.146 36.6109H229.936C229.736 36.6109 229.606 36.5609 229.606 36.3009V34.6709C229.606 34.1509 229.836 33.9709 230.536 33.9709C231.786 33.9709 232.086 34.2509 232.236 34.7409C232.276 34.8809 232.516 34.8809 232.556 34.7409L232.796 33.7909C232.856 33.5609 232.846 33.4009 232.606 33.4009C231.786 33.4209 231.126 33.4609 230.216 33.4609C229.606 33.4609 228.346 33.4809 227.616 33.4009C227.536 33.3909 227.486 33.7209 227.566 33.7409C227.996 33.8509 228.406 34.0209 228.406 34.6609V39.1009C228.406 39.8409 227.956 39.9309 227.376 40.0809C227.296 40.1009 227.336 40.4509 227.436 40.4409ZM236.326 40.5809C237.666 40.5809 238.896 39.6709 238.896 38.4209C238.896 37.7009 238.466 37.2509 237.406 36.5909L236.356 35.9409C235.686 35.5309 235.416 35.2809 235.416 34.8309C235.416 34.3009 235.786 33.9409 236.496 33.9409C237.866 33.9409 238.116 35.2809 238.426 34.3109L238.546 33.9309C238.656 33.5909 237.686 33.2609 236.926 33.2609C235.686 33.2609 234.486 34.1109 234.486 35.3409C234.486 36.0909 234.926 36.5109 236.006 37.1909L236.976 37.8009C237.686 38.2409 237.986 38.4409 237.986 38.9109C237.986 39.4909 237.576 39.9009 236.736 39.9009C235.086 39.9009 234.756 38.3609 234.476 39.4109L234.376 39.7809C234.256 40.2209 235.506 40.5809 236.326 40.5809ZM239.467 40.4209H241.627C241.757 40.4209 241.787 40.1009 241.657 40.0809C241.177 40.0109 240.797 39.8809 241.147 39.0209L241.247 38.7709C241.347 38.5309 241.517 38.5109 241.817 38.5109H243.857C244.157 38.5109 244.327 38.5309 244.427 38.7709L244.537 39.0209C244.907 39.8809 244.507 40.0109 244.137 40.0809C244.027 40.1009 244.037 40.4209 244.167 40.4209H246.807C246.927 40.4209 246.967 40.1009 246.827 40.0809C246.427 40.0209 246.187 39.8609 245.827 39.0109L243.387 33.3209C243.357 33.2509 242.657 33.4109 242.657 33.4709C242.657 33.8509 242.537 34.2609 242.147 35.1409L240.457 39.0209C240.087 39.8709 239.847 40.0109 239.437 40.0809C239.317 40.1009 239.347 40.4209 239.467 40.4209ZM241.667 37.7909L242.847 34.9909L244.017 37.7909C244.077 37.9309 243.927 37.9509 243.787 37.9509H241.897C241.757 37.9509 241.607 37.9309 241.667 37.7909ZM254.914 40.4609C254.974 40.4409 254.994 40.1709 254.914 40.1709C254.694 40.1709 254.394 40.0609 254.084 39.6709L252.594 37.8009C252.154 37.2509 251.864 37.0809 251.464 37.0809V37.0309C252.304 36.9809 253.244 36.4109 253.244 35.2509C253.244 34.0209 252.234 33.4009 250.724 33.4009C250.244 33.4009 249.554 33.4609 248.814 33.4609C248.494 33.4609 248.054 33.4509 247.664 33.4009C247.574 33.3909 247.524 33.7209 247.604 33.7409C248.084 33.8709 248.434 34.0609 248.434 34.7209V39.1809C248.434 39.8109 248.114 40.0109 247.604 40.0809C247.524 40.0909 247.584 40.4209 247.664 40.4209H250.694C250.774 40.4209 250.824 40.0909 250.754 40.0809C250.114 40.0009 249.634 39.8809 249.634 39.1809V37.2409C250.334 37.2509 250.844 37.3309 251.274 37.8909L252.814 39.8709C253.414 40.6409 254.284 40.6709 254.914 40.4609ZM249.634 36.7809V34.7209C249.634 34.1609 249.824 33.9209 250.414 33.9209C251.304 33.9209 251.984 34.4509 251.984 35.5209C251.984 36.5209 251.414 36.7809 249.924 36.7809H249.634ZM262.863 40.4609C262.923 40.4409 262.943 40.1709 262.863 40.1709C262.643 40.1709 262.343 40.0609 262.033 39.6709L260.543 37.8009C260.103 37.2509 259.813 37.0809 259.413 37.0809V37.0309C260.253 36.9809 261.193 36.4109 261.193 35.2509C261.193 34.0209 260.183 33.4009 258.673 33.4009C258.193 33.4009 257.503 33.4609 256.763 33.4609C256.443 33.4609 256.003 33.4509 255.613 33.4009C255.523 33.3909 255.473 33.7209 255.553 33.7409C256.033 33.8709 256.383 34.0609 256.383 34.7209V39.1809C256.383 39.8109 256.063 40.0109 255.553 40.0809C255.473 40.0909 255.533 40.4209 255.613 40.4209H258.643C258.723 40.4209 258.773 40.0909 258.703 40.0809C258.063 40.0009 257.583 39.8809 257.583 39.1809V37.2409C258.283 37.2509 258.793 37.3309 259.223 37.8909L260.763 39.8709C261.363 40.6409 262.233 40.6709 262.863 40.4609ZM257.583 36.7809V34.7209C257.583 34.1609 257.773 33.9209 258.363 33.9209C259.253 33.9209 259.933 34.4509 259.933 35.5209C259.933 36.5209 259.363 36.7809 257.873 36.7809H257.583ZM266.724 40.5809C268.924 40.5809 270.354 38.9009 270.354 36.8709C270.354 34.7909 268.834 33.2609 266.744 33.2609C264.554 33.2609 263.114 34.9409 263.114 36.9609C263.114 39.0409 264.644 40.5809 266.724 40.5809ZM264.314 36.4009C264.314 34.5209 265.474 33.9409 266.354 33.9409C267.794 33.9409 269.164 35.4109 269.164 37.4309C269.164 39.3209 267.994 39.9009 267.114 39.9009C265.684 39.9009 264.314 38.4409 264.314 36.4009ZM271.254 40.4409C272.164 40.3509 273.254 40.3809 274.174 40.3809C275.014 40.3809 275.564 40.4109 276.124 40.4409C276.754 40.4409 277.184 39.4309 277.184 38.9209C277.184 38.7509 276.914 38.7009 276.844 38.8109C276.604 39.1909 276.004 39.8809 274.494 39.8809C273.664 39.8809 273.424 39.6709 273.424 39.1009V34.6609C273.424 33.9609 273.824 33.8109 274.244 33.7609C274.314 33.7509 274.264 33.4209 274.194 33.4209H271.434C271.364 33.4209 271.304 33.7509 271.384 33.7609C271.814 33.8209 272.224 33.9609 272.224 34.6609V39.1009C272.224 39.8409 271.774 39.9309 271.194 40.0809C271.114 40.1009 271.154 40.4509 271.254 40.4409ZM277.739 40.4409C278.649 40.3509 279.739 40.3809 280.659 40.3809C281.499 40.3809 282.049 40.4109 282.609 40.4409C283.239 40.4409 283.669 39.4309 283.669 38.9209C283.669 38.7509 283.399 38.7009 283.329 38.8109C283.089 39.1909 282.489 39.8809 280.979 39.8809C280.149 39.8809 279.909 39.6709 279.909 39.1009V34.6609C279.909 33.9609 280.309 33.8109 280.729 33.7609C280.799 33.7509 280.749 33.4209 280.679 33.4209H277.919C277.849 33.4209 277.789 33.7509 277.869 33.7609C278.299 33.8209 278.709 33.9609 278.709 34.6609V39.1009C278.709 39.8409 278.259 39.9309 277.679 40.0809C277.599 40.1009 277.639 40.4509 277.739 40.4409ZM288.131 40.5809C290.331 40.5809 291.761 38.9009 291.761 36.8709C291.761 34.7909 290.241 33.2609 288.151 33.2609C285.961 33.2609 284.521 34.9409 284.521 36.9609C284.521 39.0409 286.051 40.5809 288.131 40.5809ZM285.721 36.4009C285.721 34.5209 286.881 33.9409 287.761 33.9409C289.201 33.9409 290.571 35.4109 290.571 37.4309C290.571 39.3209 289.401 39.9009 288.521 39.9009C287.091 39.9009 285.721 38.4409 285.721 36.4009Z" fill="#EE2A24"/>
<path d="M57.8936 26.6318H218.841" stroke="#DC3F32"/>
</svg>
